<svg xmlns="http://www.w3.org/2000/svg" fill="none" viewBox="0 0 117 59"><path fill="#fff" d="M67.2 12h-1.16l2.66-7.15h1.19L72.57 12h-1.2l-.59-1.72h-2.99L67.2 12Zm2.08-6.13-1.16 3.48h2.35L69.3 5.87h-.02Zm6.242.91c.18 0 .32.01.47.03v.94c-.12-.02-.21-.03-.33-.03-.89 0-1.53.67-1.53 1.64V12h-.98V6.9h.98v.97h.02c.27-.64.68-1.09 1.37-1.09Zm3.131 5.37c-1.52 0-2.51-1.1-2.51-2.7s.99-2.7 2.5-2.7c1.31 0 2.18.85 2.3 2h-1.01c-.05-.53-.35-1.19-1.28-1.19-1.09 0-1.49.93-1.49 1.89 0 .96.4 1.88 1.49 1.88.94 0 1.23-.64 1.28-1.22h1.01c-.07 1.17-.98 2.04-2.29 2.04Zm5.753-5.4c.94 0 1.7.54 1.7 1.71V12h-.98V8.73c0-.68-.3-1.14-1.04-1.14-.84 0-1.38.51-1.38 1.28V12h-.98V4.85h.98v2.69h.02c.27-.39.8-.79 1.68-.79Zm3.81-.76h-1.11V4.93h1.11v1.06Zm-.07 6.01h-.98V6.9h.98V12Zm2.98-.75c.17 0 .25-.01.42-.04V12c-.25.05-.41.06-.62.06-.84 0-1.35-.32-1.35-1.5V7.71h-.74V6.9h.74V5.26h.98V6.9h.98v.81h-.98v2.88c0 .54.15.66.57.66Zm5.797-1.91c0 .14 0 .29-.01.37h-3.92c.02.85.52 1.64 1.53 1.64.9 0 1.25-.58 1.34-.92h1c-.27.98-1.02 1.72-2.36 1.72-1.62 0-2.52-1.15-2.52-2.71 0-1.6.96-2.7 2.52-2.7 1.55 0 2.42 1.02 2.42 2.6Zm-3.93-.4h2.91c0-.8-.56-1.4-1.43-1.4-.82 0-1.42.56-1.48 1.4Zm6.998 3.21c-1.52 0-2.51-1.1-2.51-2.7s.99-2.7 2.5-2.7c1.31 0 2.18.85 2.3 2h-1.01c-.05-.53-.35-1.19-1.28-1.19-1.09 0-1.49.93-1.49 1.89 0 .96.4 1.88 1.49 1.88.94 0 1.23-.64 1.28-1.22h1.01c-.07 1.17-.98 2.04-2.29 2.04Zm4.914-.9c.17 0 .25-.01.42-.04V12c-.25.05-.41.06-.62.06-.84 0-1.35-.32-1.35-1.5V7.71h-.74V6.9h.74V5.26h.98V6.9h.98v.81h-.98v2.88c0 .54.15.66.57.66Zm5.798-1.91c0 .14 0 .29-.01.37h-3.92c.02.85.52 1.64 1.53 1.64.9 0 1.25-.58 1.34-.92h1c-.27.98-1.02 1.72-2.36 1.72-1.62 0-2.52-1.15-2.52-2.71 0-1.6.96-2.7 2.52-2.7 1.55 0 2.42 1.02 2.42 2.6Zm-3.93-.4h2.91c0-.8-.56-1.4-1.43-1.4-.82 0-1.42.56-1.48 1.4Zm7.437-2.19c.94 0 1.7.54 1.7 1.71V12h-.98V8.73c0-.68-.3-1.14-1.04-1.14-.84 0-1.38.51-1.38 1.28V12h-.98V6.9h.98v.64h.02c.27-.39.8-.79 1.68-.79ZM67.81 23h-1.1v-7.15h2.98c1.58 0 2.43.74 2.43 2.06 0 .91-.55 1.57-1.34 1.75v.02c1.66.31 1.05 3.13 1.44 3.25V23h-1.18c-.32-.3.36-2.8-1.39-2.8h-1.84V23Zm0-3.75h1.64c1.01 0 1.56-.44 1.56-1.26 0-.77-.44-1.19-1.54-1.19h-1.66v2.45Zm8.604 1.78V17.9h.98V23h-.98v-.64h-.02c-.27.39-.8.78-1.68.78-.94 0-1.7-.54-1.7-1.71V17.9h.98v3.26c0 .69.3 1.15 1.04 1.15.84 0 1.38-.51 1.38-1.28Zm4.65-3.28c1.3 0 2.29 1.02 2.29 2.7 0 1.68-.99 2.69-2.29 2.69-.8 0-1.29-.36-1.57-.77h-.02V23h-.98v-7.15h.98v2.65h.02c.28-.36.77-.75 1.57-.75Zm-.16 4.58c.96 0 1.42-.88 1.42-1.88 0-1-.46-1.88-1.42-1.88-.88 0-1.42.72-1.42 1.88 0 1.15.54 1.88 1.42 1.88Zm7.972-1.99c0 .14 0 .29-.01.37h-3.92c.02.85.52 1.64 1.53 1.64.9 0 1.25-.58 1.34-.92h1c-.27.98-1.02 1.72-2.36 1.72-1.62 0-2.52-1.15-2.52-2.71 0-1.6.96-2.7 2.52-2.7 1.55 0 2.42 1.02 2.42 2.6Zm-3.93-.4h2.91c0-.8-.56-1.4-1.43-1.4-.82 0-1.42.56-1.48 1.4Zm7.438-2.19c.94 0 1.7.54 1.7 1.71V23h-.98v-3.27c0-.68-.3-1.14-1.04-1.14-.84 0-1.38.51-1.38 1.28V23h-.98v-5.1h.98v.64h.02c.27-.39.8-.79 1.68-.79ZM69.59 34.14c-2.06 0-3.22-1.56-3.22-3.72 0-2.15 1.31-3.71 3.35-3.71 1.85 0 2.83.99 3.06 2.35h-1.15c-.19-.9-.86-1.4-1.92-1.4-1.58 0-2.19 1.42-2.19 2.76 0 1.35.46 2.77 2.13 2.77 1.18 0 2.12-.82 2.13-2.01h-2.11v-.92h3.23V34h-.76l-.27-.99h-.02c-.5.73-1.17 1.13-2.26 1.13Zm5.724 0c-1.02 0-1.67-.59-1.67-1.46 0-1.14.86-1.48 2.13-1.72.8-.15 1.29-.25 1.29-.75 0-.37-.22-.68-.97-.68-.89 0-1.16.28-1.21.96h-1c.05-.98.69-1.75 2.25-1.75 1.05 0 1.89.44 1.89 1.76v2.34c0 .37.05.56.24.56.03 0 .06 0 .12-.01v.6a2.2 2.2 0 0 1-.5.06c-.49 0-.75-.19-.81-.77h-.02c-.33.53-.91.86-1.74.86Zm.22-.79c.88 0 1.53-.45 1.53-1.34v-.73c-.16.15-.6.26-1.12.37-.9.18-1.28.43-1.28.96 0 .48.26.74.87.74Zm4.662.65h-.98v-7.15h.98V34Zm2.08 0h-.98v-7.15h.98V34Zm5.78-2.66c0 .14 0 .29-.01.37h-3.92c.02.85.52 1.64 1.53 1.64.9 0 1.25-.58 1.34-.92h1c-.27.98-1.02 1.72-2.36 1.72-1.62 0-2.52-1.15-2.52-2.71 0-1.6.96-2.7 2.52-2.7 1.55 0 2.42 1.02 2.42 2.6Zm-3.93-.4h2.91c0-.8-.56-1.4-1.43-1.4-.82 0-1.42.56-1.48 1.4Z"/><rect width="59" height="36.58" fill="#000"/><rect width="36.58" height="22.42" x="22.42" y="36.58" fill="#000"/><path fill="#fff" d="M49.798 20.331H45.56V17.67h7.522v5.37c-1.331 2.218-4.105 3.616-7.389 3.616-4.437 0-7.854-3.595-7.854-8.032 0-4.482 3.395-7.922 7.832-7.922 3.839 0 6.99 2.552 7.411 5.503h-3.705c-.466-1.442-1.997-2.307-3.706-2.307-2.596 0-4.46 1.974-4.46 4.726 0 2.818 1.997 4.859 4.727 4.859 1.708 0 2.995-.555 3.86-1.686V20.33Z"/><path fill="#fff" d="m32.82 20.02 4.06 6.435h-3.994l-3.505-5.924h-1.686v5.924H24.41V10.923h5.99c2.597 0 4.904 2.13 4.904 4.793 0 2.02-.954 3.528-2.485 4.305Zm-2.751-5.924h-2.374v3.595h2.374c1.065 0 1.908-.777 1.908-1.82 0-.998-.843-1.775-1.908-1.775Z"/><path fill="#fff" d="M21.982 26.455H18.41l-.977-2.596h-5.99l-.999 2.596H6.96l6.169-15.532h2.662l6.19 15.532ZM14.46 16.071l-1.93 4.97h3.816l-1.886-4.97Z"/></svg>